<?xml version="1.0" encoding="UTF-8"?>
<!DOCTYPE svg PUBLIC "-//W3C//DTD SVG 1.1//EN" "http://www.w3.org/Graphics/SVG/1.1/DTD/svg11.dtd">
<!-- Creator: CorelDRAW X8 -->
<svg xmlns="http://www.w3.org/2000/svg" xml:space="preserve" width="600px" height="200px" version="1.1" style="shape-rendering:geometricPrecision; text-rendering:geometricPrecision; image-rendering:optimizeQuality; fill-rule:evenodd; clip-rule:evenodd"
viewBox="0 0 600 200"
 xmlns:xlink="http://www.w3.org/1999/xlink">
 <defs>
  <style type="text/css">
   <![CDATA[
    .fil0 {fill:black;fill-rule:nonzero}
   ]]>
  </style>
 </defs>
 <g id="Слой_x0020_1">
  <metadata id="CorelCorpID_0Corel-Layer"/>
  <path class="fil0" d="M13 179c0,-2 0,-3 1,-3 1,0 2,-1 4,-1 7,0 11,0 12,-1 2,-1 3,-3 4,-7l27 -106c0,-2 0,-4 0,-5 0,-1 0,-1 0,-2 0,0 -1,0 -3,-1 -2,0 -4,0 -8,0 -1,0 -2,0 -3,0 -1,0 -1,-1 -1,-1 -1,0 -1,-1 -1,-2 0,-1 0,-2 1,-3 1,0 2,0 4,0l93 0c2,0 2,0 3,0 0,0 1,0 1,0 1,1 1,1 1,2 0,0 0,1 0,3l-5 35c0,1 0,2 0,3 0,0 0,1 -1,1 0,0 -1,0 -2,0 -3,0 -4,-1 -4,-2 0,-1 0,-2 1,-3 0,-6 1,-10 1,-13 0,-8 -2,-13 -6,-16 -3,-3 -10,-4 -21,-4l-24 0c-4,0 -6,0 -7,1 -1,0 -2,2 -3,5l-12 49 16 0c8,0 13,-1 16,-3 3,-3 6,-8 8,-15 0,-3 1,-5 2,-5 0,0 1,0 1,0 2,0 3,1 3,2 0,1 0,1 0,2l-11 44c0,2 -1,3 -1,4 0,0 -1,1 -2,1 -2,0 -4,-1 -4,-3 0,0 0,0 1,-1 0,0 0,-1 0,-1 1,-4 2,-8 2,-10 0,-3 -1,-5 -3,-7 -2,-1 -6,-2 -12,-2l-18 0 -13 54c0,0 0,1 -1,2 0,1 0,2 0,3 0,0 0,1 0,1 1,1 1,1 2,1 1,0 2,0 4,0l24 0c7,0 12,0 17,-1 4,-2 8,-3 11,-5 3,-1 6,-4 9,-8 2,-4 5,-7 6,-11 2,-4 4,-9 7,-15 1,-2 2,-3 2,-4 0,0 1,-1 2,-1 2,0 3,1 3,3 0,0 0,1 0,2l-18 43c-1,2 -1,3 -2,3 0,0 -2,1 -4,1l-94 0c-1,0 -2,0 -3,0 0,-1 -1,-1 -1,-1 -1,0 -1,-1 -1,-2z"/>
  <path id="1" class="fil0" d="M306 124c0,0 0,-1 0,-3 1,-2 2,-5 3,-8 1,-3 2,-6 3,-9 4,-7 8,-10 14,-10 5,0 8,1 11,4 3,3 5,7 6,12 8,-11 17,-16 28,-16 6,0 10,1 14,4 4,3 7,7 7,13 8,-11 18,-17 30,-17 6,0 11,1 15,5 4,3 6,8 6,16 0,8 -4,22 -12,44 -3,7 -4,12 -4,14 0,4 2,6 5,6 7,0 13,-8 18,-24 0,-2 1,-3 1,-3 0,-1 1,-1 2,-1 2,0 3,1 3,2 0,1 0,2 0,4 -1,2 -2,4 -3,7 -2,4 -3,7 -5,9 -2,3 -4,6 -7,8 -3,2 -6,3 -10,3 -4,0 -8,-2 -11,-5 -3,-3 -4,-7 -4,-11 0,-3 1,-7 3,-13 8,-22 12,-36 12,-44 0,-8 -3,-13 -9,-13 -11,0 -20,7 -28,21 -2,2 -3,6 -5,13 -1,2 -1,4 -2,7 -1,2 -1,5 -2,6l-7 32c-2,5 -4,7 -8,7 -1,0 -3,-1 -4,-2 -1,-1 -1,-2 -1,-4 0,0 0,-1 0,-2l13 -52c2,-5 2,-9 2,-13 0,-8 -3,-13 -9,-13 -10,0 -20,7 -28,21 -1,2 -3,6 -5,13 0,1 -1,4 -2,7 0,3 -1,5 -1,6l-8 32c-1,5 -4,7 -7,7 -2,0 -3,-1 -4,-2 -1,-1 -2,-2 -2,-4 0,0 0,-1 1,-2l15 -60c1,-3 1,-7 1,-10 0,-5 -2,-8 -5,-8 -3,0 -5,2 -8,6 -2,4 -4,10 -6,18 0,2 -1,3 -1,4 0,0 -1,0 -2,0 -2,0 -3,0 -3,-2z"/>
  <path id="2" class="fil0" d="M473 151c0,-14 5,-28 16,-39 11,-12 22,-18 34,-18 7,0 12,1 16,5 4,3 6,7 6,12 0,4 -1,6 -3,9 -2,2 -5,3 -7,3 -2,0 -4,-1 -5,-2 -2,-1 -2,-3 -2,-4 0,-1 0,-1 0,-2 0,0 0,-1 1,-2 0,-1 0,-2 1,-2 1,-1 2,-2 3,-3 1,0 3,-1 5,-1 -2,-6 -7,-9 -14,-9 -5,0 -10,2 -14,6 -5,3 -9,8 -12,14 -3,5 -5,12 -7,20 -3,9 -4,16 -4,21 0,6 1,11 4,15 3,3 7,5 12,5 2,0 5,0 7,0 3,-1 8,-3 13,-6 6,-3 11,-8 16,-13 1,-1 2,-2 2,-2 1,0 2,0 3,1 0,1 1,1 1,2 0,1 -2,4 -5,7 -4,4 -9,7 -16,11 -7,3 -14,5 -22,5 -8,0 -15,-3 -21,-9 -5,-6 -8,-14 -8,-24z"/>
  <path id="3" class="fil0" d="M146 152c0,-2 1,-3 4,-3l122 0c4,0 5,1 5,2 0,2 -1,3 -5,3l-121 0c-3,0 -5,-1 -5,-2zm0 -39c0,-2 1,-2 4,-2l122 0c3,0 5,0 5,2 0,1 -1,2 -5,2l-122 0c-3,0 -4,-1 -4,-2z"/>
  <path id="4" class="fil0" d="M548 82c0,-1 0,-2 0,-2 0,0 0,-1 1,-1l19 -22c7,-7 10,-15 10,-22 0,-4 -1,-8 -3,-11 -3,-3 -6,-5 -10,-5 -3,0 -6,1 -8,3 -3,2 -4,4 -6,7 1,0 1,0 2,0 1,0 3,1 4,2 0,1 1,2 1,3 0,2 -1,4 -2,4 -1,1 -2,2 -3,2 -1,0 -1,0 -2,0 0,-1 -1,-1 -2,-2 -1,-1 -1,-2 -1,-4 0,-4 1,-9 5,-12 3,-4 8,-6 13,-6 6,0 11,2 15,6 4,3 6,8 6,13 0,2 0,4 -1,6 0,2 -1,4 -2,5 -1,1 -2,3 -4,5 -2,3 -4,4 -6,6 -2,2 -5,4 -8,7l-11 11 18 0c6,0 9,-1 9,-1 1,-1 2,-4 3,-9l2 0 -3 17 -36 0z"/>
 </g>
</svg>
